<svg width="1291" height="948" viewBox="0 0 1291 948" fill="none" xmlns="http://www.w3.org/2000/svg">
<g opacity="0.5">
<rect x="806.847" y="786.161" width="80.2262" height="80.2262" fill="#03519F" fill-opacity="0.5"/>
<rect x="403.423" y="786.161" width="80.2262" height="80.2262" fill="#03519F" fill-opacity="0.2"/>
<rect x="1130.04" y="222.286" width="80.2262" height="79.0801" fill="#03519F" fill-opacity="0.25"/>
<rect x="483.65" y="464.06" width="80.2262" height="79.0801" fill="#03519F" fill-opacity="0.15"/>
<rect x="1048.67" y="302.512" width="80.2262" height="79.0801" fill="#03519F" fill-opacity="0.25"/>
<rect x="403.277" y="222.286" width="80.2262" height="79.0801" fill="#03519F" fill-opacity="0.15"/>
<rect x="1048.67" y="222.286" width="80.2262" height="79.0801" fill="#03519F" fill-opacity="0.25"/>
<rect x="403.277" y="464.06" width="80.2262" height="79.0801" fill="#03519F" fill-opacity="0.15"/>
<rect x="323.197" y="786.161" width="80.2262" height="80.2262" fill="#03519F" fill-opacity="0.2"/>
<rect x="323.197" y="866.388" width="80.2262" height="81.3723" fill="#03519F" fill-opacity="0.2"/>
<rect x="161.599" y="705.935" width="80.2262" height="80.2262" fill="#03519F" fill-opacity="0.2"/>
<rect x="968.445" y="60.687" width="80.2262" height="80.2262" fill="#03519F" fill-opacity="0.15"/>
<rect x="887.342" y="-20" width="80.2262" height="79.5062" fill="#03519F" fill-opacity="0.15"/>
<rect x="887.342" y="60.2579" width="80.2262" height="80.0285" fill="#03519F" fill-opacity="0.15"/>
<rect x="161.599" y="139.767" width="81.3723" height="82.5184" fill="#03519F" fill-opacity="0.2"/>
<rect x="80.2263" y="59.541" width="81.3723" height="80.2262" fill="#03519F" fill-opacity="0.2"/>
<rect y="60.687" width="81.3723" height="80.2262" fill="#03519F" fill-opacity="0.2"/>
<rect x="80.2263" y="139.767" width="81.3723" height="82.5184" fill="#03519F" fill-opacity="0.2"/>
<rect x="403.423" y="-20.6852" width="81.3723" height="80.2262" fill="#03519F" fill-opacity="0.25"/>
<rect x="161.599" y="301.366" width="80.2262" height="81.3723" fill="#03519F" fill-opacity="0.2"/>
<rect x="1130.04" y="705.935" width="80.2262" height="80.2262" fill="#03519F" fill-opacity="0.15"/>
<rect x="1210.27" y="786.161" width="80.2262" height="80.2262" fill="#03519F" fill-opacity="0.15"/>
</g>
</svg>
