<svg width="1440" height="1024" viewBox="0 0 1440 1024" fill="none" xmlns="http://www.w3.org/2000/svg">
<g opacity="0.09">
<line x1="-50.6172" y1="624.998" x2="1460.96" y2="624.998" stroke="#222020" stroke-width="1.2607"/>
<line x1="-50.6172" y1="947.736" x2="1460.96" y2="947.736" stroke="#222020" stroke-width="1.2607"/>
<line x1="-50.6172" y1="302.259" x2="1460.96" y2="302.259" stroke="#222020" stroke-width="1.2607"/>
<line x1="-50.6172" y1="463.627" x2="1460.96" y2="463.627" stroke="#222020" stroke-width="1.2607"/>
<line x1="-50.6172" y1="786.366" x2="1460.96" y2="786.366" stroke="#222020" stroke-width="1.2607"/>
<line x1="-50.6172" y1="140.889" x2="1460.96" y2="140.889" stroke="#222020" stroke-width="1.2607"/>
<line x1="-50.6172" y1="544.313" x2="1460.96" y2="544.312" stroke="#222020" stroke-width="1.2607"/>
<line x1="-50.6172" y1="867.051" x2="1460.96" y2="867.051" stroke="#222020" stroke-width="1.2607"/>
<line x1="-50.6172" y1="221.574" x2="1460.96" y2="221.574" stroke="#222020" stroke-width="1.2607"/>
<line x1="-50.6172" y1="382.942" x2="1460.96" y2="382.942" stroke="#222020" stroke-width="1.2607"/>
<line x1="-50.6172" y1="705.683" x2="1460.96" y2="705.683" stroke="#222020" stroke-width="1.2607"/>
<line x1="-50.6172" y1="60.2042" x2="1460.96" y2="60.2042" stroke="#222020" stroke-width="1.2607"/>
<line x1="642.139" y1="-48.8453" x2="642.139" y2="1118.56" stroke="#222020" stroke-width="1.2607"/>
<line x1="319.399" y1="-48.8455" x2="319.399" y2="1118.56" stroke="#222020" stroke-width="1.2607"/>
<line x1="964.875" y1="-48.8453" x2="964.875" y2="1118.56" stroke="#222020" stroke-width="1.2607"/>
<line x1="1287.62" y1="-48.8453" x2="1287.62" y2="1118.56" stroke="#222020" stroke-width="1.2607"/>
<line x1="158.028" y1="-48.8453" x2="158.028" y2="1118.56" stroke="#222020" stroke-width="1.2607"/>
<line x1="803.505" y1="-48.8453" x2="803.505" y2="1118.56" stroke="#222020" stroke-width="1.2607"/>
<line x1="480.769" y1="-48.8453" x2="480.769" y2="1118.56" stroke="#222020" stroke-width="1.2607"/>
<line x1="1126.25" y1="-48.8455" x2="1126.25" y2="1118.56" stroke="#222020" stroke-width="1.2607"/>
<line x1="77.3454" y1="-48.8453" x2="77.3454" y2="1118.56" stroke="#222020" stroke-width="1.2607"/>
<line x1="722.822" y1="-48.8455" x2="722.822" y2="1118.56" stroke="#222020" stroke-width="1.2607"/>
<line x1="400.082" y1="-48.8453" x2="400.081" y2="1118.56" stroke="#222020" stroke-width="1.2607"/>
<line x1="1045.56" y1="-48.8453" x2="1045.56" y2="1118.56" stroke="#222020" stroke-width="1.2607"/>
<line x1="1368.3" y1="-48.8453" x2="1368.3" y2="1118.56" stroke="#222020" stroke-width="1.2607"/>
<line x1="238.716" y1="-48.8453" x2="238.716" y2="1118.56" stroke="#222020" stroke-width="1.2607"/>
<line x1="884.192" y1="-48.8453" x2="884.192" y2="1118.56" stroke="#222020" stroke-width="1.2607"/>
<line x1="561.452" y1="-48.8453" x2="561.452" y2="1118.56" stroke="#222020" stroke-width="1.2607"/>
<line x1="1206.93" y1="-48.8453" x2="1206.93" y2="1118.56" stroke="#222020" stroke-width="1.2607"/>
</g>
<g opacity="0.5">
<rect x="884.847" y="786.161" width="80.2262" height="80.2262" fill="#03519F" fill-opacity="0.5"/>
<rect x="481.423" y="786.161" width="80.2262" height="80.2262" fill="#03519F" fill-opacity="0.2"/>
<rect x="1208.04" y="222.286" width="80.2262" height="79.0801" fill="#03519F" fill-opacity="0.25"/>
<rect x="561.65" y="464.06" width="80.2262" height="79.0801" fill="#03519F" fill-opacity="0.15"/>
<rect x="1126.67" y="302.512" width="80.2262" height="79.0801" fill="#03519F" fill-opacity="0.25"/>
<rect x="481.277" y="222.286" width="80.2262" height="79.0801" fill="#03519F" fill-opacity="0.15"/>
<rect x="1126.67" y="222.286" width="80.2262" height="79.0801" fill="#03519F" fill-opacity="0.25"/>
<rect x="481.277" y="464.06" width="80.2262" height="79.0801" fill="#03519F" fill-opacity="0.15"/>
<rect x="401.197" y="786.161" width="80.2262" height="80.2262" fill="#03519F" fill-opacity="0.2"/>
<rect x="401.197" y="866.388" width="80.2262" height="81.3723" fill="#03519F" fill-opacity="0.2"/>
<rect x="239.599" y="705.935" width="80.2262" height="80.2262" fill="#03519F" fill-opacity="0.2"/>
<rect x="1046.45" y="60.687" width="80.2262" height="80.2262" fill="#03519F" fill-opacity="0.15"/>
<rect x="965.342" y="-20" width="80.2262" height="79.5062" fill="#03519F" fill-opacity="0.15"/>
<rect x="965.342" y="60.2579" width="80.2262" height="80.0285" fill="#03519F" fill-opacity="0.15"/>
<rect x="239.599" y="139.767" width="81.3723" height="82.5184" fill="#03519F" fill-opacity="0.2"/>
<rect x="158.226" y="59.541" width="81.3723" height="80.2262" fill="#03519F" fill-opacity="0.2"/>
<rect x="78" y="60.687" width="81.3723" height="80.2262" fill="#03519F" fill-opacity="0.2"/>
<rect x="158.226" y="139.767" width="81.3723" height="82.5184" fill="#03519F" fill-opacity="0.2"/>
<rect x="481.423" y="-20.6852" width="81.3723" height="80.2262" fill="#03519F" fill-opacity="0.25"/>
<rect x="239.599" y="301.366" width="80.2262" height="81.3723" fill="#03519F" fill-opacity="0.2"/>
<rect x="1208.04" y="705.935" width="80.2262" height="80.2262" fill="#03519F" fill-opacity="0.15"/>
<rect x="1288.27" y="786.161" width="80.2262" height="80.2262" fill="#03519F" fill-opacity="0.15"/>
</g>
</svg>
